<svg width="172" height="36" viewBox="0 0 172 36" fill="none" xmlns="http://www.w3.org/2000/svg">
<g clip-path="url(#clip0_88_864)">
<path d="M49.9692 5.11792C48.9928 5.11792 48.2024 5.90835 48.2024 6.88469V28.2147C48.2024 29.191 48.9928 29.9815 49.9692 29.9815C50.9455 29.9815 51.7359 29.191 51.7359 28.2147V6.88469C51.7359 5.90835 50.9455 5.11792 49.9692 5.11792Z" fill="#FBFBFB"/>
<path d="M23.0446 12.637C23.0446 11.6612 22.2536 10.8702 21.2778 10.8702C20.3021 10.8702 19.511 11.6612 19.511 12.637V28.2144C19.511 29.1902 20.3021 29.9812 21.2778 29.9812C22.2536 29.9812 23.0446 29.1902 23.0446 28.2144V12.637Z" fill="#FBFBFB"/>
<path d="M23.5416 6.88768C23.5416 8.13773 22.5272 9.10821 21.2771 9.10821C20.0271 9.10821 19.0127 8.1392 19.0127 6.88768C19.0127 5.63616 20.0271 4.62323 21.2771 4.62323C22.5272 4.62323 23.5416 5.63762 23.5416 6.88768Z" fill="#00AEEF"/>
<path d="M45.0079 16.5075C43.3099 12.6695 39.2933 9.96442 34.7103 10.424C29.8784 10.9085 26.0579 14.8578 25.714 19.7014C25.2939 25.5945 29.9501 30.504 35.7539 30.504C38.5351 30.504 40.5873 29.4179 41.8608 28.4518C42.7507 27.777 42.7815 26.4479 41.9325 25.7219C41.306 25.1861 40.3911 25.1554 39.7339 25.6531C38.8454 26.3264 37.389 27.0934 35.4465 26.9939C32.8308 26.8592 30.5985 25.1978 29.6632 22.8748C29.4802 22.4225 29.8066 21.9278 30.2955 21.9278H42.5619C44.257 21.9278 45.5539 20.5577 45.5539 18.949C45.5539 18.0678 45.2655 17.0886 45.0079 16.506V16.5075ZM35.7539 13.8771C38.5205 13.8771 40.8844 15.5897 41.8505 18.0107C42.0291 18.4601 41.6983 18.949 41.2152 18.949H30.2941C29.8096 18.949 29.4788 18.4601 29.6588 18.0107C30.6234 15.5882 32.9889 13.8771 35.7554 13.8771H35.7539Z" fill="#FBFBFB"/>
<path d="M64.4463 27.0028C60.822 27.0028 57.8843 24.0651 57.8843 20.4408C57.8843 18.794 58.4932 17.2893 59.4944 16.1373L56.8304 13.8582C55.3036 15.6235 54.38 17.9246 54.38 20.4408C54.38 26.0002 58.8869 30.5071 64.4463 30.5071C67.5276 30.5071 70.2838 29.1224 72.1311 26.9428L69.4671 24.6652C68.2638 26.0938 66.4619 27.0028 64.4463 27.0028Z" fill="#FBFBFB"/>
<path d="M64.4468 10.3749C61.4037 10.3749 58.6767 11.7245 56.8308 13.8586L59.4949 16.1377C60.6981 14.7545 62.4693 13.8791 64.4468 13.8791C68.0711 13.8791 71.0089 16.8169 71.0089 20.4412C71.0089 22.0499 70.4292 23.5239 69.4675 24.6656L72.1316 26.9433C73.6173 25.1897 74.5132 22.9208 74.5132 20.4412C74.5132 14.8818 70.0062 10.3749 64.4468 10.3749Z" fill="#00AEEF"/>
<path d="M16.2562 25.7351C15.6268 25.1964 14.7002 25.1525 14.043 25.656C12.9393 26.5006 11.5604 27.0027 10.063 27.0027C6.35379 27.0027 3.36332 23.9258 3.5053 20.1859C3.63118 16.8749 6.15033 14.2064 9.44966 13.9064C11.174 13.7497 12.7753 14.2621 14.0254 15.2135C14.687 15.717 15.6063 15.7009 16.2372 15.1608C17.0803 14.4392 17.0554 13.1189 16.1757 12.4441C14.3138 11.0183 11.9395 10.2264 9.37501 10.3977C4.31037 10.7329 0.257201 14.8666 0.00982389 19.9385C-0.271219 25.7263 4.33818 30.5069 10.0644 30.5069C12.3757 30.5069 14.504 29.7267 16.2035 28.4181C17.07 27.7507 17.0876 26.4479 16.2562 25.7365V25.7351Z" fill="#FBFBFB"/>
</g>
<path d="M92.0785 -6.10352e-05V35.1303" stroke="#FBFBFB" stroke-width="0.87826"/>
<path d="M121.266 28.7318V31.1429H116.449C116.285 31.1479 116.119 31.1528 115.956 31.1528C111.951 31.1528 109.643 29.1106 109.643 25.9717C109.643 22.001 113.649 20.2979 119.436 19.9588C122.39 19.7657 123.86 19.3127 123.86 18.07C123.86 15.6886 121.664 13.9063 118.758 13.9063C118.644 13.9063 115.949 13.9211 115.949 13.9211V11.4506H118.837C122.719 11.4506 125.486 13.3741 126.425 16.5179C126.665 17.3422 126.784 18.1938 126.779 19.0528V28.0536H129.388V30.7394L124.246 30.779V28.7368H121.268V25.7687H124.009V21.2114C123.476 21.704 121.741 22.1223 119.471 22.2684C114.629 22.6075 112.626 23.7042 112.626 25.8256C112.626 27.7144 114.062 28.7393 116.446 28.7393H121.268V28.7294L121.266 28.7318Z" fill="#FBFBFB"/>
<path d="M115.936 13.9211H113.466V16.3916H115.936V13.9211Z" fill="#FBFBFB"/>
<path d="M113.468 16.3916H110.998V18.8622H113.468V16.3916Z" fill="#FBFBFB"/>
<path d="M149.975 3.97748V30.7236H147.186V27.1066C145.677 29.5574 143.078 31.0959 139.878 31.0959C134.53 31.0959 130.497 26.8749 130.497 21.3028C130.497 15.7307 134.526 11.5097 139.878 11.5097C140.167 11.5097 145.662 11.5491 145.662 11.5491V14.2587H140.236C136.456 14.2933 133.552 17.3308 133.552 21.3028C133.552 25.2747 136.488 28.3468 140.295 28.3468C142.418 28.364 144.42 27.3532 145.667 25.6372C146.508 24.4611 146.952 23.0484 146.937 21.6036V16.9708H145.667V14.2612H147.001V3.97748H149.977H149.975Z" fill="#FBFBFB"/>
<path d="M158.462 22.5689H155.742V25.289H158.462V22.5689Z" fill="#FBFBFB"/>
<path d="M171.998 30.7343L166.858 30.7739V27.1429C165.382 29.5636 162.17 31.1526 158.576 31.1526C157.898 31.1576 157.222 31.0907 156.559 30.9546C154.326 30.4546 152.744 28.4646 152.759 26.1776V25.2915H155.742V26.8112C155.742 27.3434 156.012 27.8359 156.46 28.1206C157.106 28.524 157.989 28.7344 159.068 28.7344C163.033 28.7344 166.256 25.9697 166.6 22.5689H158.462L158.462 19.8487H163.348C165.209 19.8487 166.157 19.2572 166.417 18.4849C166.462 18.3513 166.484 18.2077 166.481 18.0666C166.481 17.8364 166.462 17.6038 166.417 17.3785C166.244 16.485 165.759 15.6856 165.048 15.1163C164.137 14.3589 162.848 13.9059 161.378 13.9059C158.351 13.9059 156.276 15.5692 155.744 18.3686H152.91C153.556 14.099 156.806 11.4506 161.457 11.4506C165.541 11.4506 168.385 13.5768 169.177 17.0147C169.263 17.4008 169.325 17.7919 169.36 18.1854C169.385 18.4651 169.399 18.7572 169.399 19.0517V28.0513H171.998V30.7343Z" fill="#FBFBFB"/>
<g opacity="0.15">
<path d="M171.106 26.4307H171.158V26.708H171.539V26.4307H171.592V27.0324H171.539V26.755H171.158V27.0324H171.106V26.4307Z" fill="#FBFBFB"/>
<path d="M171.35 27.3802C170.99 27.3802 170.699 27.0894 170.699 26.7314C170.699 26.3734 170.99 26.081 171.35 26.081C171.709 26.081 172 26.3718 172 26.7314C172 27.0911 171.709 27.3819 171.35 27.3819V27.3802ZM171.35 26.1398C171.024 26.1398 170.758 26.4054 170.758 26.7314C170.758 27.0575 171.024 27.3214 171.348 27.3214C171.672 27.3214 171.938 27.0558 171.938 26.7314C171.938 26.4071 171.674 26.1398 171.35 26.1398Z" fill="#FBFBFB"/>
</g>
<defs>
<clipPath id="clip0_88_864">
<rect width="74.5131" height="25.8838" fill="white" transform="translate(0 4.62329)"/>
</clipPath>
</defs>
</svg>